<svg xmlns="http://www.w3.org/2000/svg" viewBox="0 0 96 128" width="96" height="128" shape-rendering="crispEdges">
  <title>The Bottom Board boss</title>
  <desc>Original giant torn traveler slip monster with a block zero, downward chevrons, four suit emblems, paper fists, and a jagged crown.</desc>
  <metadata>worldHeightMeters=2.8;anchor=bottom-center;role=boss</metadata>
  <ellipse cx="48" cy="122" rx="39" ry="5" fill="#101820" opacity="0.32"/>
  <g stroke="#101820" stroke-width="4" stroke-linejoin="miter">
    <path fill="#d8c7a6" d="m27 10 9-8 9 8 8-8 8 9 11-5 1 13 9 8-6 10 6 12-5 11 7 44-11 17-14-6-10 9-11-9-13 7-12-18 7-45-6-12 7-11-5-10 10-7Z"/>
    <path fill="#f2ead8" d="m28 14 8-7 8 8 9-8 7 9 9-4 0 11 8 6-6 9 6 11-6 10 7 43-8 13-13-5-9 8-9-8-12 6-8-14 7-43-6-10 7-10-6-9 9-6Z"/>
    <path fill="#63757e" stroke="none" d="m27 16 9-8 8 8-8 8ZM54 9l7 9 8-4-3 12ZM22 62l52-2 3 15-58 4ZM21 94l56-2 2 10-58 5Z"/>
    <path fill="#31404b" stroke="none" d="M25 31h18v13H25zM54 31h18v13H54z"/>
    <rect x="31" y="35" width="6" height="6" fill="#d69b3d" stroke="none"/>
    <rect x="60" y="35" width="6" height="6" fill="#d69b3d" stroke="none"/>
    <path fill="#101820" stroke="none" d="m32 51 32 0-6 8-20 0Z"/>
    <path fill="#d8c7a6" d="m21 62-15 5-3 17 11 12 13-8ZM75 62l15 5 3 17-11 12-13-8Z"/>
    <path fill="#f2ead8" d="m4 69 13-4 8 17-10 9-9-9ZM92 69l-13-4-8 17 10 9 9-9Z"/>
  </g>
  <g id="zero" fill="#101820">
    <path d="M34 66h28v31H34zm7 7v17h14V73z" fill-rule="evenodd"/>
  </g>
  <g id="down-chevrons" fill="#c74b50">
    <path d="m27 101 8 0 5 7 5-7 8 0-13 15Z"/>
    <path d="m48 101 7 0 4 5 4-5 7 0-11 13Z"/>
  </g>
  <g id="suits" fill="#326a89">
    <path d="m24 21 5-7 5 7-3 4h-4Z"/>
    <path d="m45 20 4-5 4 5-4 6Z" fill="#c74b50"/>
    <path d="m57 20 5-5 5 5-5 6Z" fill="#c74b50"/>
    <path d="m76 18 4 4-3 4h-2v4h-4v-4h-2l-3-4 4-4 3 3Z"/>
  </g>
  <path fill="#d69b3d" d="M6 47h6v6H6zM84 47h6v6h-6zM13 29h4v4h-4zM79 27h4v4h-4z"/>
</svg>
