<svg xmlns="http://www.w3.org/2000/svg" viewBox="0 0 128 64" width="128" height="64" shape-rendering="crispEdges">
  <title>Convention-center courtyard sky</title>
  <desc>Original blocky dusk sky with layered blue clouds, a gold moon, and abstract cardroom roof silhouettes.</desc>
  <metadata>tileHorizontal=true;tileWidth=128;tileHeight=64;surface=sky</metadata>
  <rect width="128" height="64" fill="#182433"/>
  <path fill="#244052" d="M0 10h18v5h20v-4h22v7h24v-5h20v4h24v25H0z"/>
  <path fill="#326a89" d="M0 25h27v-4h21v6h31v-3h27v5h22v20H0z"/>
  <path fill="#5d899b" d="M0 38h18v-3h28v5h25v-4h34v4h23v12H0z"/>
  <path fill="#d69b3d" d="m95 8 12 0 7 9-4 12-12 3-9-8 1-10Z"/>
  <path fill="#f2d189" d="m97 10 9 0 6 8-4 10-9 2-7-7 1-9Z"/>
  <path fill="#101820" d="M0 50h14v-8l7-6 7 6v8h18v-6l9-10 9 10v6h18v-9h9v9h17v-7l8-7 8 7v7h9v14H0z"/>
  <g fill="#d69b3d">
    <rect x="19" y="44" width="4" height="5"/>
    <rect x="52" y="43" width="5" height="6"/>
    <rect x="109" y="44" width="4" height="5"/>
  </g>
</svg>
