<svg xmlns="http://www.w3.org/2000/svg" viewBox="0 0 64 96" width="64" height="96" shape-rendering="crispEdges">
  <title>Traveler Vault door</title>
  <desc>Original heavy blue cardroom vault door with a gold review-slip wheel, corner bolts, and three lock indicators.</desc>
  <metadata>worldWidthMeters=1.6;worldHeightMeters=2.4;anchor=bottom-center;surface=door</metadata>
  <rect width="64" height="96" fill="#101820"/>
  <path fill="#31404b" d="M4 4h56v88H4z"/>
  <path fill="#63757e" d="M9 9h46v78H9z"/>
  <path fill="#1f4d64" d="M13 13h38v70H13z"/>
  <g fill="#d69b3d">
    <rect x="8" y="8" width="5" height="5"/>
    <rect x="51" y="8" width="5" height="5"/>
    <rect x="8" y="83" width="5" height="5"/>
    <rect x="51" y="83" width="5" height="5"/>
  </g>
  <g stroke="#101820" stroke-width="3" stroke-linejoin="miter">
    <path fill="#326a89" d="m17 28 30 0 8 19-8 20-30 0-8-20Z"/>
    <path fill="#d69b3d" d="m24 35 16 0 8 12-8 13-16 0-8-13Z"/>
    <path fill="#f2ead8" d="m27 40 10 0 5 7-5 8-10 0-5-8Z"/>
    <path fill="#326a89" d="m32 39 4 8-4 9-4-9Z"/>
  </g>
  <g id="locks" stroke="#101820" stroke-width="2">
    <rect x="13" y="72" width="10" height="10" fill="#c74b50"/>
    <rect x="27" y="72" width="10" height="10" fill="#c74b50"/>
    <rect x="41" y="72" width="10" height="10" fill="#c74b50"/>
    <rect x="16" y="75" width="4" height="4" fill="#f2ead8" stroke="none"/>
    <rect x="30" y="75" width="4" height="4" fill="#f2ead8" stroke="none"/>
    <rect x="44" y="75" width="4" height="4" fill="#f2ead8" stroke="none"/>
  </g>
</svg>
