<svg xmlns="http://www.w3.org/2000/svg" viewBox="0 0 64 64" width="64" height="64" shape-rendering="crispEdges">
  <title>Card impact burst</title>
  <desc>Original radial burst of paper scraps, suit-colored pixels, and a bent card for impact animation.</desc>
  <metadata>worldHeightMeters=0.55;anchor=center;effect=card-impact</metadata>
  <g fill="#d69b3d">
    <path d="m30 3 5 0-1 14-4 0ZM30 47h5v14h-5ZM3 30h14v5H3zM47 30h14v5H47z"/>
  </g>
  <g fill="#c74b50">
    <path d="m10 8 4-3 9 12-4 3ZM44 45l4-3 8 12-4 3ZM7 50l-3-4 12-8 3 4ZM45 18l-3-4 12-9 3 4Z"/>
  </g>
  <g fill="#326a89">
    <rect x="9" y="24" width="6" height="5"/>
    <rect x="48" y="37" width="7" height="5"/>
    <rect x="23" y="49" width="5" height="7"/>
    <rect x="38" y="8" width="5" height="7"/>
  </g>
  <path fill="#f2ead8" stroke="#101820" stroke-width="3" stroke-linejoin="miter" d="m21 20 24-4-2 30-24 2Z"/>
  <path fill="#d8c7a6" d="m25 23 15-3-1 5-14 2Z"/>
  <path fill="#1b2734" d="m32 27 6 8-6 7-6-7Z"/>
</svg>
