<svg xmlns="http://www.w3.org/2000/svg" viewBox="0 0 64 64" width="64" height="64" shape-rendering="crispEdges">
  <title>Quiet cardroom carpet tile</title>
  <desc>Original low-contrast woven carpet with a sparse abstract card-suit watermark.</desc>
  <metadata>tile=true;tileWidth=64;tileHeight=64;surface=floor</metadata>
  <rect width="64" height="64" fill="#858780"/>
  <path fill="#8f918a" d="M0 0h64v2H0zM0 16h64v2H0zM0 32h64v2H0zM0 48h64v2H0z"/>
  <path fill="#7b7d77" opacity=".55" d="M7 7h9v2H7zM39 7h9v2h-9zM23 23h9v2h-9zM55 23h9v2h-9zM7 39h9v2H7zM39 39h9v2h-9zM23 55h9v2h-9zM55 55h9v2h-9z"/>
  <path fill="#9a9c94" opacity=".45" d="m32 26 5 6-5 6-5-6Z"/>
</svg>
