<svg xmlns="http://www.w3.org/2000/svg" viewBox="0 0 48 48" width="48" height="48" shape-rendering="crispEdges">
  <title>Coach biscuit pickup</title>
  <desc>Original gold dog-biscuit pickup stamped with four tiny card-suit shapes.</desc>
  <metadata>worldHeightMeters=0.28;anchor=bottom-center;pickup=composure</metadata>
  <ellipse cx="24" cy="43" rx="18" ry="3" fill="#101820" opacity="0.25"/>
  <path fill="#d69b3d" stroke="#101820" stroke-width="3" stroke-linejoin="miter" d="m8 14 6-5 7 5h6l7-5 6 5-3 7 3 7-6 6-7-4h-6l-7 4-6-6 3-7Z"/>
  <path fill="#e9bd67" d="m14 16 5-3 4 4h4l5-4 3 3-2 5 2 5-3 3-5-3h-7l-5 3-3-3 2-5-2-5Z"/>
  <g fill="#326a89">
    <path d="m18 18 3-4 3 4-2 3h-2Z"/>
    <path d="m28 17 3-3 3 3-3 4Z" fill="#c74b50"/>
    <path d="m19 25 3-3 3 3-3 4Z" fill="#c74b50"/>
    <path d="m29 23 2 2-1 2h-1v3h-2v-3h-1l-1-2 2-2 1 2Z"/>
  </g>
</svg>
