<svg xmlns="http://www.w3.org/2000/svg" viewBox="0 0 48 48" width="48" height="48" shape-rendering="crispEdges">
  <title>Cardroom coffee pickup</title>
  <desc>Original dark blue ceramic coffee cup with gold rim, steam pixels, and a small heart emblem.</desc>
  <metadata>worldHeightMeters=0.35;anchor=bottom-center;pickup=composure</metadata>
  <ellipse cx="23" cy="43" rx="18" ry="3" fill="#101820" opacity="0.25"/>
  <g stroke="#101820" stroke-width="3" stroke-linejoin="miter">
    <path fill="#326a89" d="M7 18h28l-3 22H12Z"/>
    <path fill="#1f4d64" stroke="none" d="m12 23 18 0-2 13H14Z"/>
    <path fill="#326a89" d="m34 21 9 1 2 11-7 7-7-3 2-6 5 2 2-2-1-5-6 0Z"/>
    <path fill="#d69b3d" d="M7 16h29v7H7z"/>
    <path fill="#6f4327" stroke="none" d="M11 18h21v3H11z"/>
  </g>
  <g fill="#f2ead8">
    <path d="m19 27 3-3 3 3 3-3 3 3-6 7Z"/>
    <path d="M15 13h3V7h3V3h-4v3h-3zM26 14h3V9h3V5h-4v3h-3z" opacity="0.78"/>
  </g>
</svg>
