<svg viewBox="0 0 120 120" xmlns="http://www.w3.org/2000/svg" role="img" aria-label="The coach, a border collie in a trenchcoat"><defs><clipPath id="c"><circle cx="60" cy="60" r="57"/></clipPath></defs><circle cx="60" cy="60" r="57" fill="#f4eedd"/><circle cx="111.22" cy="54.62" r="0.85" fill="#b7791f" opacity="0.55"/><circle cx="111.13" cy="66.15" r="0.85" fill="#b7791f" opacity="0.55"/><circle cx="108.48" cy="77.37" r="0.85" fill="#b7791f" opacity="0.55"/><circle cx="103.4" cy="87.73" r="0.85" fill="#b7791f" opacity="0.55"/><circle cx="96.14" cy="96.69" r="0.85" fill="#b7791f" opacity="0.55"/><circle cx="87.07" cy="103.81" r="0.85" fill="#b7791f" opacity="0.55"/><circle cx="76.65" cy="108.74" r="0.85" fill="#b7791f" opacity="0.55"/><circle cx="65.38" cy="111.22" r="0.85" fill="#b7791f" opacity="0.55"/><circle cx="53.85" cy="111.13" r="0.85" fill="#b7791f" opacity="0.55"/><circle cx="42.63" cy="108.48" r="0.85" fill="#b7791f" opacity="0.55"/><circle cx="32.27" cy="103.4" r="0.85" fill="#b7791f" opacity="0.55"/><circle cx="23.31" cy="96.14" r="0.85" fill="#b7791f" opacity="0.55"/><circle cx="16.19" cy="87.07" r="0.85" fill="#b7791f" opacity="0.55"/><circle cx="11.26" cy="76.65" r="0.85" fill="#b7791f" opacity="0.55"/><circle cx="8.78" cy="65.38" r="0.85" fill="#b7791f" opacity="0.55"/><circle cx="8.87" cy="53.85" r="0.85" fill="#b7791f" opacity="0.55"/><circle cx="11.52" cy="42.63" r="0.85" fill="#b7791f" opacity="0.55"/><circle cx="16.6" cy="32.27" r="0.85" fill="#b7791f" opacity="0.55"/><circle cx="23.86" cy="23.31" r="0.85" fill="#b7791f" opacity="0.55"/><circle cx="32.93" cy="16.19" r="0.85" fill="#b7791f" opacity="0.55"/><circle cx="43.35" cy="11.26" r="0.85" fill="#b7791f" opacity="0.55"/><circle cx="54.62" cy="8.78" r="0.85" fill="#b7791f" opacity="0.55"/><circle cx="66.15" cy="8.87" r="0.85" fill="#b7791f" opacity="0.55"/><circle cx="77.37" cy="11.52" r="0.85" fill="#b7791f" opacity="0.55"/><circle cx="87.73" cy="16.6" r="0.85" fill="#b7791f" opacity="0.55"/><circle cx="96.69" cy="23.86" r="0.85" fill="#b7791f" opacity="0.55"/><circle cx="103.81" cy="32.93" r="0.85" fill="#b7791f" opacity="0.55"/><circle cx="108.74" cy="43.35" r="0.85" fill="#b7791f" opacity="0.55"/><g clip-path="url(#c)"><path d="M 26 92 Q 26 70 60 68 Q 94 70 94 92 Z" fill="#b7862f"/><path d="M 8 120 L 12 96 Q 16 84 30 80 L 60 74 L 90 80 Q 104 84 108 96 L 112 120 Z" fill="#d3a55c"/><path d="M 44 78 L 52 86 L 56 96 L 60 90 L 64 96 L 68 86 L 76 78 L 70 72 L 50 72 Z" fill="#fdfaf3"/><path d="M 53 94 L 60 88 L 67 94 L 60 106 Z" fill="#0f7b6c"/><path d="M 30 120 L 25 90 Q 26 74 38 68 L 53 86 L 44 120 Z" fill="#b7862f" stroke="#d3a55c" stroke-width="1.2"/><path d="M 90 120 L 95 90 Q 94 74 82 68 L 67 86 L 76 120 Z" fill="#b7862f" stroke="#d3a55c" stroke-width="1.2"/><circle cx="60" cy="113" r="2.2" fill="#b7862f"/><circle cx="60" cy="96.5" r="3.2" fill="#fdfaf3" opacity="0.95"/><circle cx="60" cy="96.5" r="2.2" fill="#b7791f"/><g transform="rotate(2 60 66)"><path d="M 55 33 Q 51 21 40 15 L 28.5 21 Q 27.5 30 30 40 Z" fill="#1d2b3a"/><path d="M 48 32 Q 45 24 40 20.5 L 35 24 Q 38 31 41 35 Z" fill="#d3a55c" opacity="0.8"/><line x1="40" y1="16.5" x2="30" y2="21.5" stroke="#fff" stroke-width="1" opacity="0.22" stroke-linecap="round"/><path d="M 65 33 Q 69 21 80 15 L 91.5 21 Q 92.5 30 90 40 Z" fill="#1d2b3a"/><path d="M 72 32 Q 75 24 80 20.5 L 85 24 Q 82 31 79 35 Z" fill="#d3a55c" opacity="0.8"/><line x1="80" y1="16.5" x2="90" y2="21.5" stroke="#fff" stroke-width="1" opacity="0.22" stroke-linecap="round"/><path d="M 32 52 Q 32 26 60 26 Q 88 26 88 52 Q 88 59 85 63 L 91 66 L 84 68.5 L 88 74 L 80 73 Q 72 81 60 81 Q 48 81 40 73 L 32 74 L 36 68.5 L 29 66 L 35 63 Q 32 59 32 52 Z" fill="#1d2b3a"/><g transform="translate(0 0)"><path d="M 44 62 Q 45 52 60 52 Q 75 52 76 62 Q 76 74 68 78 Q 60 82 52 78 Q 44 74 44 62 Z" fill="#fdfaf3"/><path d="M 60 29 C 63.4 33 63 39 61.4 44 C 65 49 66 53 64.6 57 L 55.4 57 C 54 53 55 49 58.6 44 C 57 39 56.6 33 60 29 Z" fill="#fdfaf3"/><ellipse cx="46.5" cy="47" rx="5.2" ry="5.6" fill="#fdfaf3"/><circle cx="46.5" cy="47.36" r="4.1" fill="#6b4a23"/><circle cx="46.5" cy="47.6" r="2" fill="#1d2b3a"/><circle cx="45.5" cy="46.2" r="0.9" fill="#fff"/><path d="M 41.1 45.8 Q 46.5 43.6 51.9 45.8 L 51.9 41 L 41.1 41 Z" fill="#1d2b3a"/><path d="M 41.3 45.6 Q 46.5 43.4 51.7 45.6" fill="none" stroke="#fdfaf3" stroke-width="1" opacity="0.65"/><ellipse cx="73.5" cy="47" rx="5.2" ry="5.6" fill="#fdfaf3"/><circle cx="73.5" cy="47.36" r="4.1" fill="#b7791f"/><circle cx="73.5" cy="47.6" r="2" fill="#1d2b3a"/><circle cx="72.5" cy="46.2" r="0.9" fill="#fff"/><path d="M 68.1 45.8 Q 73.5 43.6 78.9 45.8 L 78.9 41 L 68.1 41 Z" fill="#1d2b3a"/><path d="M 68.3 45.6 Q 73.5 43.4 78.7 45.6" fill="none" stroke="#fdfaf3" stroke-width="1" opacity="0.65"/><path d="M 42.5 39.5 q 4 -2.4 8 -0.6" fill="none" stroke="#d3a55c" stroke-width="2.6" stroke-linecap="round"/><path d="M 69.5 38.9 q 4 -1.8 8 0.6" fill="none" stroke="#d3a55c" stroke-width="2.6" stroke-linecap="round"/><path d="M 53.5 61 Q 60 58.5 66.5 61 Q 66.5 67 60 69.5 Q 53.5 67 53.5 61 Z" fill="#1d2b3a"/><path d="M 60 69.5 Q 60 73 55 74 M 60 69.5 Q 60 73 65 74" fill="none" stroke="#1d2b3a" stroke-width="1.6" stroke-linecap="round"/></g></g></g><circle cx="60" cy="60" r="57" fill="none" stroke="#1d2b3a" stroke-width="1.6" opacity="0.25"/></svg>
