<svg viewBox="0 0 120 120" xmlns="http://www.w3.org/2000/svg" role="img" aria-label="The coach, a border collie in a trenchcoat"><defs><clipPath id="c"><circle cx="60" cy="60" r="57"/></clipPath></defs><circle cx="60" cy="60" r="57" fill="#f4eedd"/><circle cx="75.91" cy="11.02" r="0.85" fill="#b7791f" opacity="0.55"/><circle cx="86.41" cy="15.79" r="0.85" fill="#b7791f" opacity="0.55"/><circle cx="95.59" cy="22.78" r="0.85" fill="#b7791f" opacity="0.55"/><circle cx="102.98" cy="31.63" r="0.85" fill="#b7791f" opacity="0.55"/><circle cx="108.22" cy="41.9" r="0.85" fill="#b7791f" opacity="0.55"/><circle cx="111.03" cy="53.09" r="0.85" fill="#b7791f" opacity="0.55"/><circle cx="111.29" cy="64.62" r="0.85" fill="#b7791f" opacity="0.55"/><circle cx="108.98" cy="75.91" r="0.85" fill="#b7791f" opacity="0.55"/><circle cx="104.21" cy="86.41" r="0.85" fill="#b7791f" opacity="0.55"/><circle cx="97.22" cy="95.59" r="0.85" fill="#b7791f" opacity="0.55"/><circle cx="88.37" cy="102.98" r="0.85" fill="#b7791f" opacity="0.55"/><circle cx="78.1" cy="108.22" r="0.85" fill="#b7791f" opacity="0.55"/><circle cx="66.91" cy="111.03" r="0.85" fill="#b7791f" opacity="0.55"/><circle cx="55.38" cy="111.29" r="0.85" fill="#b7791f" opacity="0.55"/><circle cx="44.09" cy="108.98" r="0.85" fill="#b7791f" opacity="0.55"/><circle cx="33.59" cy="104.21" r="0.85" fill="#b7791f" opacity="0.55"/><circle cx="24.41" cy="97.22" r="0.85" fill="#b7791f" opacity="0.55"/><circle cx="17.02" cy="88.37" r="0.85" fill="#b7791f" opacity="0.55"/><circle cx="11.78" cy="78.1" r="0.85" fill="#b7791f" opacity="0.55"/><circle cx="8.97" cy="66.91" r="0.85" fill="#b7791f" opacity="0.55"/><circle cx="8.71" cy="55.38" r="0.85" fill="#b7791f" opacity="0.55"/><circle cx="11.02" cy="44.09" r="0.85" fill="#b7791f" opacity="0.55"/><circle cx="15.79" cy="33.59" r="0.85" fill="#b7791f" opacity="0.55"/><circle cx="22.78" cy="24.41" r="0.85" fill="#b7791f" opacity="0.55"/><circle cx="31.63" cy="17.02" r="0.85" fill="#b7791f" opacity="0.55"/><circle cx="41.9" cy="11.78" r="0.85" fill="#b7791f" opacity="0.55"/><circle cx="53.09" cy="8.97" r="0.85" fill="#b7791f" opacity="0.55"/><circle cx="64.62" cy="8.71" r="0.85" fill="#b7791f" opacity="0.55"/><g clip-path="url(#c)"><path d="M 26 92 Q 26 70 60 68 Q 94 70 94 92 Z" fill="#b7862f"/><path d="M 8 120 L 12 96 Q 16 84 30 80 L 60 74 L 90 80 Q 104 84 108 96 L 112 120 Z" fill="#d3a55c"/><path d="M 44 78 L 52 86 L 56 96 L 60 90 L 64 96 L 68 86 L 76 78 L 70 72 L 50 72 Z" fill="#fdfaf3"/><path d="M 53 94 L 60 88 L 67 94 L 60 106 Z" fill="#0f7b6c"/><path d="M 30 120 L 25 90 Q 26 74 38 68 L 53 86 L 44 120 Z" fill="#b7862f" stroke="#d3a55c" stroke-width="1.2"/><path d="M 90 120 L 95 90 Q 94 74 82 68 L 67 86 L 76 120 Z" fill="#b7862f" stroke="#d3a55c" stroke-width="1.2"/><circle cx="60" cy="113" r="2.2" fill="#b7862f"/><circle cx="60" cy="96.5" r="3.2" fill="#fdfaf3" opacity="0.95"/><circle cx="60" cy="96.5" r="2.2" fill="#b7791f"/><g transform="rotate(-3 60 66)"><path d="M 55 33 Q 51 21 40 15 L 28.5 21 Q 27.5 30 30 40 Z" fill="#1d2b3a"/><path d="M 48 32 Q 45 24 40 20.5 L 35 24 Q 38 31 41 35 Z" fill="#d3a55c" opacity="0.8"/><line x1="40" y1="16.5" x2="30" y2="21.5" stroke="#fff" stroke-width="1" opacity="0.22" stroke-linecap="round"/><path d="M 90 40 Q 92 22 88 14 Q 80 20 65 33 Z" fill="#1d2b3a"/><path d="M 84 38 Q 89.5 24 87.5 19 Q 82.5 23 71 33.5 Z" fill="#d3a55c" opacity="0.8"/><path d="M 32 52 Q 32 26 60 26 Q 88 26 88 52 Q 88 59 85 63 L 91 66 L 84 68.5 L 88 74 L 80 73 Q 72 81 60 81 Q 48 81 40 73 L 32 74 L 36 68.5 L 29 66 L 35 63 Q 32 59 32 52 Z" fill="#1d2b3a"/><path d="M 44 62 Q 45 52 60 52 Q 75 52 76 62 Q 76 74 68 78 Q 60 82 52 78 Q 44 74 44 62 Z" fill="#fdfaf3"/><path d="M 60 29 C 63.4 33 63 39 61.4 44 C 65 49 66 53 64.6 57 L 55.4 57 C 54 53 55 49 58.6 44 C 57 39 56.6 33 60 29 Z" fill="#fdfaf3"/><ellipse cx="46.5" cy="47" rx="5.2" ry="5.6" fill="#fdfaf3"/><circle cx="47.58" cy="47.12" r="4.1" fill="#6b4a23"/><circle cx="48.3" cy="47.2" r="2" fill="#1d2b3a"/><circle cx="47.3" cy="45.8" r="0.9" fill="#fff"/><ellipse cx="73.5" cy="47" rx="5.2" ry="5.6" fill="#fdfaf3"/><circle cx="74.58" cy="47.12" r="4.1" fill="#b7791f"/><circle cx="75.3" cy="47.2" r="2" fill="#1d2b3a"/><circle cx="74.3" cy="45.8" r="0.9" fill="#fff"/><path d="M 42.5 39.5 q 4 -2.4 8 -0.6" fill="none" stroke="#d3a55c" stroke-width="2.6" stroke-linecap="round"/><path d="M 69.5 36.3 q 4 -1.8 8 0.6" fill="none" stroke="#d3a55c" stroke-width="2.6" stroke-linecap="round"/><path d="M 53.5 61 Q 60 58.5 66.5 61 Q 66.5 67 60 69.5 Q 53.5 67 53.5 61 Z" fill="#1d2b3a"/><path d="M 60 69.5 Q 60 73 56 73.6 Q 62 76.4 67 72.4" fill="none" stroke="#1d2b3a" stroke-width="1.6" stroke-linecap="round"/></g></g><circle cx="60" cy="60" r="57" fill="none" stroke="#1d2b3a" stroke-width="1.6" opacity="0.25"/></svg>
