<svg viewBox="0 0 120 120" xmlns="http://www.w3.org/2000/svg" role="img" aria-label="The coach, a border collie in a trenchcoat"><defs><clipPath id="c"><circle cx="60" cy="60" r="57"/></clipPath></defs><circle cx="60" cy="60" r="57" fill="#f4eedd"/><circle cx="90.27" cy="18.34" r="0.85" fill="#b7791f" opacity="0.55"/><circle cx="98.78" cy="26.12" r="0.85" fill="#b7791f" opacity="0.55"/><circle cx="105.35" cy="35.6" r="0.85" fill="#b7791f" opacity="0.55"/><circle cx="109.64" cy="46.3" r="0.85" fill="#b7791f" opacity="0.55"/><circle cx="111.45" cy="57.69" r="0.85" fill="#b7791f" opacity="0.55"/><circle cx="110.67" cy="69.2" r="0.85" fill="#b7791f" opacity="0.55"/><circle cx="107.36" cy="80.24" r="0.85" fill="#b7791f" opacity="0.55"/><circle cx="101.66" cy="90.27" r="0.85" fill="#b7791f" opacity="0.55"/><circle cx="93.88" cy="98.78" r="0.85" fill="#b7791f" opacity="0.55"/><circle cx="84.4" cy="105.35" r="0.85" fill="#b7791f" opacity="0.55"/><circle cx="73.7" cy="109.64" r="0.85" fill="#b7791f" opacity="0.55"/><circle cx="62.31" cy="111.45" r="0.85" fill="#b7791f" opacity="0.55"/><circle cx="50.8" cy="110.67" r="0.85" fill="#b7791f" opacity="0.55"/><circle cx="39.76" cy="107.36" r="0.85" fill="#b7791f" opacity="0.55"/><circle cx="29.73" cy="101.66" r="0.85" fill="#b7791f" opacity="0.55"/><circle cx="21.22" cy="93.88" r="0.85" fill="#b7791f" opacity="0.55"/><circle cx="14.65" cy="84.4" r="0.85" fill="#b7791f" opacity="0.55"/><circle cx="10.36" cy="73.7" r="0.85" fill="#b7791f" opacity="0.55"/><circle cx="8.55" cy="62.31" r="0.85" fill="#b7791f" opacity="0.55"/><circle cx="9.33" cy="50.8" r="0.85" fill="#b7791f" opacity="0.55"/><circle cx="12.64" cy="39.76" r="0.85" fill="#b7791f" opacity="0.55"/><circle cx="18.34" cy="29.73" r="0.85" fill="#b7791f" opacity="0.55"/><circle cx="26.12" cy="21.22" r="0.85" fill="#b7791f" opacity="0.55"/><circle cx="35.6" cy="14.65" r="0.85" fill="#b7791f" opacity="0.55"/><circle cx="46.3" cy="10.36" r="0.85" fill="#b7791f" opacity="0.55"/><circle cx="57.69" cy="8.55" r="0.85" fill="#b7791f" opacity="0.55"/><circle cx="69.2" cy="9.33" r="0.85" fill="#b7791f" opacity="0.55"/><circle cx="80.24" cy="12.64" r="0.85" fill="#b7791f" opacity="0.55"/><g clip-path="url(#c)"><path d="M 26 92 Q 26 70 60 68 Q 94 70 94 92 Z" fill="#b7862f"/><path d="M 8 120 L 12 96 Q 16 84 30 80 L 60 74 L 90 80 Q 104 84 108 96 L 112 120 Z" fill="#d3a55c"/><path d="M 44 78 L 52 86 L 56 96 L 60 90 L 64 96 L 68 86 L 76 78 L 70 72 L 50 72 Z" fill="#fdfaf3"/><path d="M 53 94 L 60 88 L 67 94 L 60 106 Z" fill="#0f7b6c"/><path d="M 30 120 L 25 90 Q 26 74 38 68 L 53 86 L 44 120 Z" fill="#b7862f" stroke="#d3a55c" stroke-width="1.2"/><path d="M 90 120 L 95 90 Q 94 74 82 68 L 67 86 L 76 120 Z" fill="#b7862f" stroke="#d3a55c" stroke-width="1.2"/><circle cx="60" cy="113" r="2.2" fill="#b7862f"/><circle cx="60" cy="96.5" r="3.2" fill="#fdfaf3" opacity="0.95"/><circle cx="60" cy="96.5" r="2.2" fill="#b7791f"/><g transform="rotate(-6 60 66)"><path d="M 55 33 Q 51 21 40 15 L 28.5 21 Q 27.5 30 30 40 Z" fill="#1d2b3a"/><path d="M 48 32 Q 45 24 40 20.5 L 35 24 Q 38 31 41 35 Z" fill="#d3a55c" opacity="0.8"/><line x1="40" y1="16.5" x2="30" y2="21.5" stroke="#fff" stroke-width="1" opacity="0.22" stroke-linecap="round"/><path d="M 90 40 Q 84 17 80 9 Q 72 15 65 33 Z" fill="#1d2b3a"/><path d="M 84 38 Q 81.5 19 79.5 14 Q 74.5 18 71 33.5 Z" fill="#d3a55c" opacity="0.8"/><path d="M 32 52 Q 32 26 60 26 Q 88 26 88 52 Q 88 59 85 63 L 91 66 L 84 68.5 L 88 74 L 80 73 Q 72 81 60 81 Q 48 81 40 73 L 32 74 L 36 68.5 L 29 66 L 35 63 Q 32 59 32 52 Z" fill="#1d2b3a"/><path d="M 44 62 Q 45 52 60 52 Q 75 52 76 62 Q 76 74 68 78 Q 60 82 52 78 Q 44 74 44 62 Z" fill="#fdfaf3"/><path d="M 60 29 C 63.4 33 63 39 61.4 44 C 65 49 66 53 64.6 57 L 55.4 57 C 54 53 55 49 58.6 44 C 57 39 56.6 33 60 29 Z" fill="#fdfaf3"/><ellipse cx="46.5" cy="47" rx="5.2" ry="5.6" fill="#fdfaf3"/><circle cx="46.5" cy="47.24" r="4.1" fill="#6b4a23"/><circle cx="46.5" cy="47.4" r="2" fill="#1d2b3a"/><circle cx="45.5" cy="46" r="0.9" fill="#fff"/><ellipse cx="73.5" cy="47" rx="5.2" ry="5.6" fill="#fdfaf3"/><circle cx="73.5" cy="47.24" r="4.1" fill="#b7791f"/><circle cx="73.5" cy="47.4" r="2" fill="#1d2b3a"/><circle cx="72.5" cy="46" r="0.9" fill="#fff"/><path d="M 42.5 36.9 q 4 -2.4 8 -0.6" fill="none" stroke="#d3a55c" stroke-width="2.6" stroke-linecap="round"/><path d="M 69.5 38.9 q 4 -1.8 8 0.6" fill="none" stroke="#d3a55c" stroke-width="2.6" stroke-linecap="round"/><path d="M 53.5 61 Q 60 58.5 66.5 61 Q 66.5 67 60 69.5 Q 53.5 67 53.5 61 Z" fill="#1d2b3a"/><path d="M 49 71.5 Q 60 80.5 71 71.5 Q 66.5 79.5 60 79.5 Q 53.5 79.5 49 71.5 Z" fill="#1d2b3a"/><path d="M 55.5 76 Q 60 79.6 64.5 76 Q 64.5 82 60 82 Q 55.5 82 55.5 76 Z" fill="#b73750"/><path d="M 60 69.5 L 60 72" stroke="#1d2b3a" stroke-width="1.4"/></g></g><circle cx="60" cy="60" r="57" fill="none" stroke="#1d2b3a" stroke-width="1.6" opacity="0.25"/></svg>
