<svg viewBox="0 0 120 120" xmlns="http://www.w3.org/2000/svg" role="img" aria-label="The coach, a border collie in a trenchcoat"><defs><clipPath id="c"><circle cx="60" cy="60" r="57"/></clipPath></defs><circle cx="60" cy="60" r="57" fill="#f4eedd"/><circle cx="94.46" cy="21.73" r="0.85" fill="#b7791f" opacity="0.55"/><circle cx="102.11" cy="30.36" r="0.85" fill="#b7791f" opacity="0.55"/><circle cx="107.65" cy="40.47" r="0.85" fill="#b7791f" opacity="0.55"/><circle cx="110.8" cy="51.56" r="0.85" fill="#b7791f" opacity="0.55"/><circle cx="111.41" cy="63.08" r="0.85" fill="#b7791f" opacity="0.55"/><circle cx="109.43" cy="74.44" r="0.85" fill="#b7791f" opacity="0.55"/><circle cx="104.98" cy="85.08" r="0.85" fill="#b7791f" opacity="0.55"/><circle cx="98.27" cy="94.46" r="0.85" fill="#b7791f" opacity="0.55"/><circle cx="89.64" cy="102.11" r="0.85" fill="#b7791f" opacity="0.55"/><circle cx="79.53" cy="107.65" r="0.85" fill="#b7791f" opacity="0.55"/><circle cx="68.44" cy="110.8" r="0.85" fill="#b7791f" opacity="0.55"/><circle cx="56.92" cy="111.41" r="0.85" fill="#b7791f" opacity="0.55"/><circle cx="45.56" cy="109.43" r="0.85" fill="#b7791f" opacity="0.55"/><circle cx="34.92" cy="104.98" r="0.85" fill="#b7791f" opacity="0.55"/><circle cx="25.54" cy="98.27" r="0.85" fill="#b7791f" opacity="0.55"/><circle cx="17.89" cy="89.64" r="0.85" fill="#b7791f" opacity="0.55"/><circle cx="12.35" cy="79.53" r="0.85" fill="#b7791f" opacity="0.55"/><circle cx="9.2" cy="68.44" r="0.85" fill="#b7791f" opacity="0.55"/><circle cx="8.59" cy="56.92" r="0.85" fill="#b7791f" opacity="0.55"/><circle cx="10.57" cy="45.56" r="0.85" fill="#b7791f" opacity="0.55"/><circle cx="15.02" cy="34.92" r="0.85" fill="#b7791f" opacity="0.55"/><circle cx="21.73" cy="25.54" r="0.85" fill="#b7791f" opacity="0.55"/><circle cx="30.36" cy="17.89" r="0.85" fill="#b7791f" opacity="0.55"/><circle cx="40.47" cy="12.35" r="0.85" fill="#b7791f" opacity="0.55"/><circle cx="51.56" cy="9.2" r="0.85" fill="#b7791f" opacity="0.55"/><circle cx="63.08" cy="8.59" r="0.85" fill="#b7791f" opacity="0.55"/><circle cx="74.44" cy="10.57" r="0.85" fill="#b7791f" opacity="0.55"/><circle cx="85.08" cy="15.02" r="0.85" fill="#b7791f" opacity="0.55"/><g clip-path="url(#c)"><path d="M 26 92 Q 26 70 60 68 Q 94 70 94 92 Z" fill="#b7862f"/><path d="M 8 120 L 12 96 Q 16 84 30 80 L 60 74 L 90 80 Q 104 84 108 96 L 112 120 Z" fill="#d3a55c"/><path d="M 44 78 L 52 86 L 56 96 L 60 90 L 64 96 L 68 86 L 76 78 L 70 72 L 50 72 Z" fill="#fdfaf3"/><path d="M 53 94 L 60 88 L 67 94 L 60 106 Z" fill="#0f7b6c"/><path d="M 30 120 L 25 90 Q 26 74 38 68 L 53 86 L 44 120 Z" fill="#b7862f" stroke="#d3a55c" stroke-width="1.2"/><path d="M 90 120 L 95 90 Q 94 74 82 68 L 67 86 L 76 120 Z" fill="#b7862f" stroke="#d3a55c" stroke-width="1.2"/><circle cx="60" cy="113" r="2.2" fill="#b7862f"/><circle cx="60" cy="96.5" r="3.2" fill="#fdfaf3" opacity="0.95"/><circle cx="60" cy="96.5" r="2.2" fill="#b7791f"/><g transform="rotate(5 60 66)"><path d="M 30 40 Q 36 17 40 9 Q 48 15 55 33 Z" fill="#1d2b3a"/><path d="M 36 38 Q 38.5 19 40.5 14 Q 45.5 18 49 33.5 Z" fill="#d3a55c" opacity="0.8"/><path d="M 65 33 Q 69 21 80 15 L 91.5 21 Q 92.5 30 90 40 Z" fill="#1d2b3a"/><path d="M 72 32 Q 75 24 80 20.5 L 85 24 Q 82 31 79 35 Z" fill="#d3a55c" opacity="0.8"/><line x1="80" y1="16.5" x2="90" y2="21.5" stroke="#fff" stroke-width="1" opacity="0.22" stroke-linecap="round"/><path d="M 32 52 Q 32 26 60 26 Q 88 26 88 52 Q 88 59 85 63 L 91 66 L 84 68.5 L 88 74 L 80 73 Q 72 81 60 81 Q 48 81 40 73 L 32 74 L 36 68.5 L 29 66 L 35 63 Q 32 59 32 52 Z" fill="#1d2b3a"/><path d="M 44 62 Q 45 52 60 52 Q 75 52 76 62 Q 76 74 68 78 Q 60 82 52 78 Q 44 74 44 62 Z" fill="#fdfaf3"/><path d="M 60 29 C 63.4 33 63 39 61.4 44 C 65 49 66 53 64.6 57 L 55.4 57 C 54 53 55 49 58.6 44 C 57 39 56.6 33 60 29 Z" fill="#fdfaf3"/><ellipse cx="46.5" cy="47" rx="5.2" ry="5.6" fill="#fdfaf3"/><circle cx="45.66" cy="46.16" r="4.1" fill="#6b4a23"/><circle cx="45.1" cy="45.6" r="2" fill="#1d2b3a"/><circle cx="44.1" cy="44.2" r="0.9" fill="#fff"/><ellipse cx="73.5" cy="47" rx="5.2" ry="5.6" fill="#fdfaf3"/><circle cx="72.66" cy="46.16" r="4.1" fill="#b7791f"/><circle cx="72.1" cy="45.6" r="2" fill="#1d2b3a"/><circle cx="71.1" cy="44.2" r="0.9" fill="#fff"/><path d="M 43.9 39.5 q 4 -2.4 8 -0.6" fill="none" stroke="#d3a55c" stroke-width="2.6" stroke-linecap="round"/><path d="M 68.1 38.9 q 4 -1.8 8 0.6" fill="none" stroke="#d3a55c" stroke-width="2.6" stroke-linecap="round"/><path d="M 53.5 61 Q 60 58.5 66.5 61 Q 66.5 67 60 69.5 Q 53.5 67 53.5 61 Z" fill="#1d2b3a"/><path d="M 60 69.5 Q 60 73 55 74 M 60 69.5 Q 60 73 65 74" fill="none" stroke="#1d2b3a" stroke-width="1.6" stroke-linecap="round"/></g></g><circle cx="60" cy="60" r="57" fill="none" stroke="#1d2b3a" stroke-width="1.6" opacity="0.25"/></svg>
