<svg viewBox="0 0 120 120" xmlns="http://www.w3.org/2000/svg" role="img" aria-label="The coach, a border collie in a trenchcoat"><defs><clipPath id="c"><circle cx="60" cy="60" r="57"/></clipPath></defs><circle cx="60" cy="60" r="57" fill="#f4eedd"/><circle cx="104.6" cy="34.25" r="0.85" fill="#b7791f" opacity="0.55"/><circle cx="109.21" cy="44.82" r="0.85" fill="#b7791f" opacity="0.55"/><circle cx="111.36" cy="56.15" r="0.85" fill="#b7791f" opacity="0.55"/><circle cx="110.92" cy="67.68" r="0.85" fill="#b7791f" opacity="0.55"/><circle cx="107.94" cy="78.82" r="0.85" fill="#b7791f" opacity="0.55"/><circle cx="102.55" cy="89.01" r="0.85" fill="#b7791f" opacity="0.55"/><circle cx="95.03" cy="97.75" r="0.85" fill="#b7791f" opacity="0.55"/><circle cx="85.75" cy="104.6" r="0.85" fill="#b7791f" opacity="0.55"/><circle cx="75.18" cy="109.21" r="0.85" fill="#b7791f" opacity="0.55"/><circle cx="63.85" cy="111.36" r="0.85" fill="#b7791f" opacity="0.55"/><circle cx="52.32" cy="110.92" r="0.85" fill="#b7791f" opacity="0.55"/><circle cx="41.18" cy="107.94" r="0.85" fill="#b7791f" opacity="0.55"/><circle cx="30.99" cy="102.55" r="0.85" fill="#b7791f" opacity="0.55"/><circle cx="22.25" cy="95.03" r="0.85" fill="#b7791f" opacity="0.55"/><circle cx="15.4" cy="85.75" r="0.85" fill="#b7791f" opacity="0.55"/><circle cx="10.79" cy="75.18" r="0.85" fill="#b7791f" opacity="0.55"/><circle cx="8.64" cy="63.85" r="0.85" fill="#b7791f" opacity="0.55"/><circle cx="9.08" cy="52.32" r="0.85" fill="#b7791f" opacity="0.55"/><circle cx="12.06" cy="41.18" r="0.85" fill="#b7791f" opacity="0.55"/><circle cx="17.45" cy="30.99" r="0.85" fill="#b7791f" opacity="0.55"/><circle cx="24.97" cy="22.25" r="0.85" fill="#b7791f" opacity="0.55"/><circle cx="34.25" cy="15.4" r="0.85" fill="#b7791f" opacity="0.55"/><circle cx="44.82" cy="10.79" r="0.85" fill="#b7791f" opacity="0.55"/><circle cx="56.15" cy="8.64" r="0.85" fill="#b7791f" opacity="0.55"/><circle cx="67.68" cy="9.08" r="0.85" fill="#b7791f" opacity="0.55"/><circle cx="78.82" cy="12.06" r="0.85" fill="#b7791f" opacity="0.55"/><circle cx="89.01" cy="17.45" r="0.85" fill="#b7791f" opacity="0.55"/><circle cx="97.75" cy="24.97" r="0.85" fill="#b7791f" opacity="0.55"/><g clip-path="url(#c)"><path d="M 26 92 Q 26 70 60 68 Q 94 70 94 92 Z" fill="#b7862f"/><path d="M 8 120 L 12 96 Q 16 84 30 80 L 60 74 L 90 80 Q 104 84 108 96 L 112 120 Z" fill="#d3a55c"/><path d="M 44 78 L 52 86 L 56 96 L 60 90 L 64 96 L 68 86 L 76 78 L 70 72 L 50 72 Z" fill="#fdfaf3"/><path d="M 53 94 L 60 88 L 67 94 L 60 106 Z" fill="#0f7b6c"/><path d="M 30 120 L 25 90 Q 26 74 38 68 L 53 86 L 44 120 Z" fill="#b7862f" stroke="#d3a55c" stroke-width="1.2"/><path d="M 90 120 L 95 90 Q 94 74 82 68 L 67 86 L 76 120 Z" fill="#b7862f" stroke="#d3a55c" stroke-width="1.2"/><circle cx="60" cy="113" r="2.2" fill="#b7862f"/><circle cx="60" cy="96.5" r="3.2" fill="#fdfaf3" opacity="0.95"/><circle cx="60" cy="96.5" r="2.2" fill="#b7791f"/><g transform="rotate(4 60 66)"><path d="M 55 33 Q 51 21 40 15 L 28.5 21 Q 27.5 30 30 40 Z" fill="#1d2b3a"/><path d="M 48 32 Q 45 24 40 20.5 L 35 24 Q 38 31 41 35 Z" fill="#d3a55c" opacity="0.8"/><line x1="40" y1="16.5" x2="30" y2="21.5" stroke="#fff" stroke-width="1" opacity="0.22" stroke-linecap="round"/><path d="M 65 33 Q 69 21 80 15 L 91.5 21 Q 92.5 30 90 40 Z" fill="#1d2b3a"/><path d="M 72 32 Q 75 24 80 20.5 L 85 24 Q 82 31 79 35 Z" fill="#d3a55c" opacity="0.8"/><line x1="80" y1="16.5" x2="90" y2="21.5" stroke="#fff" stroke-width="1" opacity="0.22" stroke-linecap="round"/><path d="M 32 52 Q 32 26 60 26 Q 88 26 88 52 Q 88 59 85 63 L 91 66 L 84 68.5 L 88 74 L 80 73 Q 72 81 60 81 Q 48 81 40 73 L 32 74 L 36 68.5 L 29 66 L 35 63 Q 32 59 32 52 Z" fill="#1d2b3a"/><g transform="translate(0 0)"><path d="M 44 62 Q 45 52 60 52 Q 75 52 76 62 Q 76 74 68 78 Q 60 82 52 78 Q 44 74 44 62 Z" fill="#fdfaf3"/><path d="M 60 29 C 63.4 33 63 39 61.4 44 C 65 49 66 53 64.6 57 L 55.4 57 C 54 53 55 49 58.6 44 C 57 39 56.6 33 60 29 Z" fill="#fdfaf3"/><path d="M 41.9 48 Q 46.5 42.6 51.1 48" fill="none" stroke="#fdfaf3" stroke-width="2.4" stroke-linecap="round"/><path d="M 68.9 48 Q 73.5 42.6 78.1 48" fill="none" stroke="#fdfaf3" stroke-width="2.4" stroke-linecap="round"/><path d="M 42.5 39.5 q 4 -2.4 8 -0.6" fill="none" stroke="#d3a55c" stroke-width="2.6" stroke-linecap="round"/><path d="M 69.5 38.9 q 4 -1.8 8 0.6" fill="none" stroke="#d3a55c" stroke-width="2.6" stroke-linecap="round"/><path d="M 53.5 61 Q 60 58.5 66.5 61 Q 66.5 67 60 69.5 Q 53.5 67 53.5 61 Z" fill="#1d2b3a"/><path d="M 49 71.5 Q 60 80.5 71 71.5 Q 66.5 79.5 60 79.5 Q 53.5 79.5 49 71.5 Z" fill="#1d2b3a"/><path d="M 55.5 76 Q 60 79.6 64.5 76 Q 64.5 82 60 82 Q 55.5 82 55.5 76 Z" fill="#b73750"/><path d="M 60 69.5 L 60 72" stroke="#1d2b3a" stroke-width="1.4"/></g></g></g><circle cx="60" cy="60" r="57" fill="none" stroke="#1d2b3a" stroke-width="1.6" opacity="0.25"/></svg>
