<svg viewBox="0 0 120 120" xmlns="http://www.w3.org/2000/svg" role="img" aria-label="The coach, a border collie in a trenchcoat"><defs><clipPath id="c"><circle cx="60" cy="60" r="57"/></clipPath></defs><circle cx="60" cy="60" r="57" fill="#f4eedd"/><circle cx="80.95" cy="12.95" r="0.85" fill="#b7791f" opacity="0.55"/><circle cx="90.89" cy="18.79" r="0.85" fill="#b7791f" opacity="0.55"/><circle cx="99.29" cy="26.7" r="0.85" fill="#b7791f" opacity="0.55"/><circle cx="105.71" cy="36.28" r="0.85" fill="#b7791f" opacity="0.55"/><circle cx="109.84" cy="47.04" r="0.85" fill="#b7791f" opacity="0.55"/><circle cx="111.48" cy="58.46" r="0.85" fill="#b7791f" opacity="0.55"/><circle cx="110.53" cy="69.95" r="0.85" fill="#b7791f" opacity="0.55"/><circle cx="107.05" cy="80.95" r="0.85" fill="#b7791f" opacity="0.55"/><circle cx="101.21" cy="90.89" r="0.85" fill="#b7791f" opacity="0.55"/><circle cx="93.3" cy="99.29" r="0.85" fill="#b7791f" opacity="0.55"/><circle cx="83.72" cy="105.71" r="0.85" fill="#b7791f" opacity="0.55"/><circle cx="72.96" cy="109.84" r="0.85" fill="#b7791f" opacity="0.55"/><circle cx="61.54" cy="111.48" r="0.85" fill="#b7791f" opacity="0.55"/><circle cx="50.05" cy="110.53" r="0.85" fill="#b7791f" opacity="0.55"/><circle cx="39.05" cy="107.05" r="0.85" fill="#b7791f" opacity="0.55"/><circle cx="29.11" cy="101.21" r="0.85" fill="#b7791f" opacity="0.55"/><circle cx="20.71" cy="93.3" r="0.85" fill="#b7791f" opacity="0.55"/><circle cx="14.29" cy="83.72" r="0.85" fill="#b7791f" opacity="0.55"/><circle cx="10.16" cy="72.96" r="0.85" fill="#b7791f" opacity="0.55"/><circle cx="8.52" cy="61.54" r="0.85" fill="#b7791f" opacity="0.55"/><circle cx="9.47" cy="50.05" r="0.85" fill="#b7791f" opacity="0.55"/><circle cx="12.95" cy="39.05" r="0.85" fill="#b7791f" opacity="0.55"/><circle cx="18.79" cy="29.11" r="0.85" fill="#b7791f" opacity="0.55"/><circle cx="26.7" cy="20.71" r="0.85" fill="#b7791f" opacity="0.55"/><circle cx="36.28" cy="14.29" r="0.85" fill="#b7791f" opacity="0.55"/><circle cx="47.04" cy="10.16" r="0.85" fill="#b7791f" opacity="0.55"/><circle cx="58.46" cy="8.52" r="0.85" fill="#b7791f" opacity="0.55"/><circle cx="69.95" cy="9.47" r="0.85" fill="#b7791f" opacity="0.55"/><g clip-path="url(#c)"><path d="M 26 92 Q 26 70 60 68 Q 94 70 94 92 Z" fill="#b7862f"/><path d="M 8 120 L 12 96 Q 16 84 30 80 L 60 74 L 90 80 Q 104 84 108 96 L 112 120 Z" fill="#d3a55c"/><path d="M 44 78 L 52 86 L 56 96 L 60 90 L 64 96 L 68 86 L 76 78 L 70 72 L 50 72 Z" fill="#fdfaf3"/><path d="M 53 94 L 60 88 L 67 94 L 60 106 Z" fill="#0f7b6c"/><path d="M 30 120 L 25 90 Q 26 74 38 68 L 53 86 L 44 120 Z" fill="#b7862f" stroke="#d3a55c" stroke-width="1.2"/><path d="M 90 120 L 95 90 Q 94 74 82 68 L 67 86 L 76 120 Z" fill="#b7862f" stroke="#d3a55c" stroke-width="1.2"/><circle cx="60" cy="113" r="2.2" fill="#b7862f"/><circle cx="60" cy="96.5" r="3.2" fill="#fdfaf3" opacity="0.95"/><circle cx="60" cy="96.5" r="2.2" fill="#b7791f"/><g transform="rotate(0 60 66)"><path d="M 30 40 Q 36 17 40 9 Q 48 15 55 33 Z" fill="#1d2b3a"/><path d="M 36 38 Q 38.5 19 40.5 14 Q 45.5 18 49 33.5 Z" fill="#d3a55c" opacity="0.8"/><path d="M 90 40 Q 84 17 80 9 Q 72 15 65 33 Z" fill="#1d2b3a"/><path d="M 84 38 Q 81.5 19 79.5 14 Q 74.5 18 71 33.5 Z" fill="#d3a55c" opacity="0.8"/><path d="M 32 52 Q 32 26 60 26 Q 88 26 88 52 Q 88 59 85 63 L 91 66 L 84 68.5 L 88 74 L 80 73 Q 72 81 60 81 Q 48 81 40 73 L 32 74 L 36 68.5 L 29 66 L 35 63 Q 32 59 32 52 Z" fill="#1d2b3a"/><g transform="translate(0 0)"><path d="M 44 62 Q 45 52 60 52 Q 75 52 76 62 Q 76 74 68 78 Q 60 82 52 78 Q 44 74 44 62 Z" fill="#fdfaf3"/><path d="M 60 29 C 63.4 33 63 39 61.4 44 C 65 49 66 53 64.6 57 L 55.4 57 C 54 53 55 49 58.6 44 C 57 39 56.6 33 60 29 Z" fill="#fdfaf3"/><ellipse cx="46.5" cy="47" rx="5.2" ry="5.6" fill="#fdfaf3"/><circle cx="46.5" cy="45.92" r="4.1" fill="#6b4a23"/><circle cx="46.5" cy="45.2" r="2" fill="#1d2b3a"/><circle cx="45.5" cy="43.8" r="0.9" fill="#fff"/><ellipse cx="73.5" cy="47" rx="5.2" ry="5.6" fill="#fdfaf3"/><circle cx="73.5" cy="45.92" r="4.1" fill="#b7791f"/><circle cx="73.5" cy="45.2" r="2" fill="#1d2b3a"/><circle cx="72.5" cy="43.8" r="0.9" fill="#fff"/><path d="M 42.5 36.9 q 4 -2.4 8 -0.6" fill="none" stroke="#d3a55c" stroke-width="2.6" stroke-linecap="round"/><path d="M 69.5 36.3 q 4 -1.8 8 0.6" fill="none" stroke="#d3a55c" stroke-width="2.6" stroke-linecap="round"/><path d="M 53.5 61 Q 60 58.5 66.5 61 Q 66.5 67 60 69.5 Q 53.5 67 53.5 61 Z" fill="#1d2b3a"/><ellipse cx="60" cy="74.4" rx="3.2" ry="3.8" fill="#1d2b3a"/></g></g></g><circle cx="60" cy="60" r="57" fill="none" stroke="#1d2b3a" stroke-width="1.6" opacity="0.25"/></svg>
