<svg viewBox="0 0 120 120" xmlns="http://www.w3.org/2000/svg" role="img" aria-label="Barbelo mark: ouroboros and eye"><path d="M 72.82 8.57 A 53 53 0 1 1 35.12 13.2" fill="none" stroke="#1d2b3a" stroke-width="4.4" stroke-linecap="round"/><path d="M 72.82 8.57 Q 66.51 7 60 6.2" fill="none" stroke="#1d2b3a" stroke-width="2" stroke-linecap="round"/><line x1="82.49" y1="13.89" x2="83.98" y2="10.84" stroke="#ffffff" stroke-width="0.8" opacity="0.35"/><line x1="90.87" y1="19.03" x2="92.92" y2="16.31" stroke="#ffffff" stroke-width="0.8" opacity="0.35"/><line x1="98.12" y1="25.67" x2="100.65" y2="23.4" stroke="#ffffff" stroke-width="0.8" opacity="0.35"/><line x1="103.97" y1="33.58" x2="106.89" y2="31.83" stroke="#ffffff" stroke-width="0.8" opacity="0.35"/><line x1="108.21" y1="42.45" x2="111.4" y2="41.29" stroke="#ffffff" stroke-width="0.8" opacity="0.35"/><line x1="110.67" y1="51.97" x2="114.03" y2="51.44" stroke="#ffffff" stroke-width="0.8" opacity="0.35"/><line x1="111.27" y1="61.79" x2="114.67" y2="61.91" stroke="#ffffff" stroke-width="0.8" opacity="0.35"/><line x1="109.99" y1="71.54" x2="113.3" y2="72.3" stroke="#ffffff" stroke-width="0.8" opacity="0.35"/><line x1="106.86" y1="80.87" x2="109.97" y2="82.25" stroke="#ffffff" stroke-width="0.8" opacity="0.35"/><line x1="102.02" y1="89.42" x2="104.81" y2="91.37" stroke="#ffffff" stroke-width="0.8" opacity="0.35"/><line x1="95.64" y1="96.9" x2="98" y2="99.35" stroke="#ffffff" stroke-width="0.8" opacity="0.35"/><line x1="87.94" y1="103.02" x2="89.79" y2="105.88" stroke="#ffffff" stroke-width="0.8" opacity="0.35"/><line x1="79.22" y1="107.56" x2="80.49" y2="110.72" stroke="#ffffff" stroke-width="0.8" opacity="0.35"/><line x1="69.79" y1="110.36" x2="70.44" y2="113.7" stroke="#ffffff" stroke-width="0.8" opacity="0.35"/><line x1="60" y1="111.3" x2="60" y2="114.7" stroke="#ffffff" stroke-width="0.8" opacity="0.35"/><line x1="50.21" y1="110.36" x2="49.56" y2="113.7" stroke="#ffffff" stroke-width="0.8" opacity="0.35"/><line x1="40.78" y1="107.56" x2="39.51" y2="110.72" stroke="#ffffff" stroke-width="0.8" opacity="0.35"/><line x1="32.06" y1="103.02" x2="30.21" y2="105.88" stroke="#ffffff" stroke-width="0.8" opacity="0.35"/><line x1="24.36" y1="96.9" x2="22" y2="99.35" stroke="#ffffff" stroke-width="0.8" opacity="0.35"/><line x1="17.98" y1="89.42" x2="15.19" y2="91.37" stroke="#ffffff" stroke-width="0.8" opacity="0.35"/><line x1="13.14" y1="80.87" x2="10.03" y2="82.25" stroke="#ffffff" stroke-width="0.8" opacity="0.35"/><line x1="10.01" y1="71.54" x2="6.7" y2="72.3" stroke="#ffffff" stroke-width="0.8" opacity="0.35"/><line x1="8.73" y1="61.79" x2="5.33" y2="61.91" stroke="#ffffff" stroke-width="0.8" opacity="0.35"/><line x1="9.33" y1="51.97" x2="5.97" y2="51.44" stroke="#ffffff" stroke-width="0.8" opacity="0.35"/><line x1="11.79" y1="42.45" x2="8.6" y2="41.29" stroke="#ffffff" stroke-width="0.8" opacity="0.35"/><line x1="16.03" y1="33.58" x2="13.11" y2="31.83" stroke="#ffffff" stroke-width="0.8" opacity="0.35"/><line x1="21.88" y1="25.67" x2="19.35" y2="23.4" stroke="#ffffff" stroke-width="0.8" opacity="0.35"/><path d="M 32.11 7.55 Q 38.14 5.25 44.93 5.04 L 41.83 9.64 L 45.9 11.32 Q 41.96 15 37.28 17.27 Z" fill="#1d2b3a"/><circle cx="37.96" cy="8.75" r="1.15" fill="#ffffff"/><text x="96.81" y="81.25" font-family="Georgia, 'Times New Roman', serif" font-size="7.8" fill="#1d2b3a" opacity="0.9" text-anchor="middle" dominant-baseline="central" transform="rotate(300 96.81 81.25)">Β</text><text x="87.32" y="92.56" font-family="Georgia, 'Times New Roman', serif" font-size="7.8" fill="#1d2b3a" opacity="0.9" text-anchor="middle" dominant-baseline="central" transform="rotate(320 87.32 92.56)">Α</text><text x="74.54" y="99.94" font-family="Georgia, 'Times New Roman', serif" font-size="7.8" fill="#1d2b3a" opacity="0.9" text-anchor="middle" dominant-baseline="central" transform="rotate(340 74.54 99.94)">Ρ</text><text x="60" y="102.5" font-family="Georgia, 'Times New Roman', serif" font-size="7.8" fill="#1d2b3a" opacity="0.9" text-anchor="middle" dominant-baseline="central" transform="rotate(360 60 102.5)">Β</text><text x="45.46" y="99.94" font-family="Georgia, 'Times New Roman', serif" font-size="7.8" fill="#1d2b3a" opacity="0.9" text-anchor="middle" dominant-baseline="central" transform="rotate(380 45.46 99.94)">Η</text><text x="32.68" y="92.56" font-family="Georgia, 'Times New Roman', serif" font-size="7.8" fill="#1d2b3a" opacity="0.9" text-anchor="middle" dominant-baseline="central" transform="rotate(400 32.68 92.56)">Λ</text><text x="23.19" y="81.25" font-family="Georgia, 'Times New Roman', serif" font-size="7.8" fill="#1d2b3a" opacity="0.9" text-anchor="middle" dominant-baseline="central" transform="rotate(420 23.19 81.25)">Ω</text><path d="M 41 58 Q 60 42.5 79 58 Q 60 73.5 41 58 Z" fill="none" stroke="#1d2b3a" stroke-width="2.1"/><circle cx="60" cy="56.4" r="5.6" fill="#1d2b3a"/><circle cx="60" cy="56.4" r="2" fill="#b7791f"/><line x1="50.73" y1="43.16" x2="48.08" y2="38.92" stroke="#b7791f" stroke-width="1.2" stroke-linecap="round"/><line x1="55.18" y1="41.18" x2="53.8" y2="36.37" stroke="#b7791f" stroke-width="1.2" stroke-linecap="round"/><line x1="60" y1="40.5" x2="60" y2="35.5" stroke="#b7791f" stroke-width="1.2" stroke-linecap="round"/><line x1="64.82" y1="41.18" x2="66.2" y2="36.37" stroke="#b7791f" stroke-width="1.2" stroke-linecap="round"/><line x1="69.27" y1="43.16" x2="71.92" y2="38.92" stroke="#b7791f" stroke-width="1.2" stroke-linecap="round"/><text x="45.3" y="80" font-family="Georgia, 'Times New Roman', serif" font-size="9.6" fill="#1d2b3a" text-anchor="middle" dominant-baseline="central">♠</text><text x="55.1" y="80" font-family="Georgia, 'Times New Roman', serif" font-size="9.6" fill="#1d2b3a" text-anchor="middle" dominant-baseline="central">♥</text><text x="64.9" y="80" font-family="Georgia, 'Times New Roman', serif" font-size="9.6" fill="#1d2b3a" text-anchor="middle" dominant-baseline="central">♦</text><text x="74.7" y="80" font-family="Georgia, 'Times New Roman', serif" font-size="9.6" fill="#1d2b3a" text-anchor="middle" dominant-baseline="central">♣</text></svg>
