<svg viewBox="0 0 120 120" xmlns="http://www.w3.org/2000/svg"><circle cx="60" cy="60" r="56.5" fill="none" stroke="#1d2b3a" stroke-width="2.4"/><circle cx="60" cy="60" r="51.5" fill="none" stroke="#b7791f" stroke-width="1.5" stroke-dasharray="0.1 4.2" stroke-linecap="round"/><text x="60" y="15.5" font-family="Georgia, 'Times New Roman', serif" font-size="8.6" fill="#1d2b3a" opacity="0.92" text-anchor="middle" dominant-baseline="central" transform="rotate(0 60 15.5)">Β</text><circle cx="79.31" cy="19.91" r="0.9" fill="#b7791f"/><text x="94.79" y="32.25" font-family="Georgia, 'Times New Roman', serif" font-size="8.6" fill="#1d2b3a" opacity="0.92" text-anchor="middle" dominant-baseline="central" transform="rotate(51.43 94.79 32.25)">Α</text><circle cx="103.38" cy="50.1" r="0.9" fill="#b7791f"/><text x="103.38" y="69.9" font-family="Georgia, 'Times New Roman', serif" font-size="8.6" fill="#1d2b3a" opacity="0.92" text-anchor="middle" dominant-baseline="central" transform="rotate(102.86 103.38 69.9)">Ρ</text><circle cx="94.79" cy="87.75" r="0.9" fill="#b7791f"/><text x="79.31" y="100.09" font-family="Georgia, 'Times New Roman', serif" font-size="8.6" fill="#1d2b3a" opacity="0.92" text-anchor="middle" dominant-baseline="central" transform="rotate(154.29 79.31 100.09)">Β</text><circle cx="60" cy="104.5" r="0.9" fill="#b7791f"/><text x="40.69" y="100.09" font-family="Georgia, 'Times New Roman', serif" font-size="8.6" fill="#1d2b3a" opacity="0.92" text-anchor="middle" dominant-baseline="central" transform="rotate(205.71 40.69 100.09)">Η</text><circle cx="25.21" cy="87.75" r="0.9" fill="#b7791f"/><text x="16.62" y="69.9" font-family="Georgia, 'Times New Roman', serif" font-size="8.6" fill="#1d2b3a" opacity="0.92" text-anchor="middle" dominant-baseline="central" transform="rotate(257.14 16.62 69.9)">Λ</text><circle cx="16.62" cy="50.1" r="0.9" fill="#b7791f"/><text x="25.21" y="32.25" font-family="Georgia, 'Times New Roman', serif" font-size="8.6" fill="#1d2b3a" opacity="0.92" text-anchor="middle" dominant-baseline="central" transform="rotate(308.57 25.21 32.25)">Ω</text><circle cx="40.69" cy="19.91" r="0.9" fill="#b7791f"/><circle cx="60" cy="60" r="37.5" fill="none" stroke="#1d2b3a" stroke-width="1.1"/><text x="60" y="33.5" font-family="Georgia, 'Times New Roman', serif" font-size="14.5" fill="#1d2b3a" text-anchor="middle" dominant-baseline="central">♠</text><text x="86.5" y="60" font-family="Georgia, 'Times New Roman', serif" font-size="14.5" fill="#1d2b3a" text-anchor="middle" dominant-baseline="central">♥</text><text x="60" y="86.5" font-family="Georgia, 'Times New Roman', serif" font-size="14.5" fill="#1d2b3a" text-anchor="middle" dominant-baseline="central">♦</text><text x="33.5" y="60" font-family="Georgia, 'Times New Roman', serif" font-size="14.5" fill="#1d2b3a" text-anchor="middle" dominant-baseline="central">♣</text><line x1="60" y1="51.5" x2="60" y2="46.5" stroke="#b7791f" stroke-width="1.3" stroke-linecap="round"/><line x1="66.01" y1="53.99" x2="69.55" y2="50.45" stroke="#b7791f" stroke-width="1.3" stroke-linecap="round"/><line x1="68.5" y1="60" x2="73.5" y2="60" stroke="#b7791f" stroke-width="1.3" stroke-linecap="round"/><line x1="66.01" y1="66.01" x2="69.55" y2="69.55" stroke="#b7791f" stroke-width="1.3" stroke-linecap="round"/><line x1="60" y1="68.5" x2="60" y2="73.5" stroke="#b7791f" stroke-width="1.3" stroke-linecap="round"/><line x1="53.99" y1="66.01" x2="50.45" y2="69.55" stroke="#b7791f" stroke-width="1.3" stroke-linecap="round"/><line x1="51.5" y1="60" x2="46.5" y2="60" stroke="#b7791f" stroke-width="1.3" stroke-linecap="round"/><line x1="53.99" y1="53.99" x2="50.45" y2="50.45" stroke="#b7791f" stroke-width="1.3" stroke-linecap="round"/><circle cx="60" cy="60" r="3.6" fill="#b7791f"/></svg>
