<svg xmlns="http://www.w3.org/2000/svg" viewBox="0 0 72 96" width="72" height="96" shape-rendering="crispEdges">
  <title>Border Collie Bridge Coach — point pose</title>
  <desc>Original full-body border collie sprite facing right and extending one white forepaw toward a coaching target.</desc>
  <metadata>worldHeightMeters=0.95;shoulderHeightMeters=0.55;anchor=bottom-center;pose=point-right</metadata>
  <ellipse cx="34" cy="91" rx="25" ry="3" fill="#101820" opacity="0.28"/>
  <g stroke="#101820" stroke-width="3" stroke-linejoin="miter">
    <path fill="#1b2734" d="M20 54 11 52 6 46 7 39 11 38 13 46 24 49Z"/>
    <path fill="#f2ead8" stroke="none" d="m7 40 4 0 2 6-4-2Z"/>
    <path fill="#1b2734" d="m18 43 21-3 11 8 2 15-7 13-20 1-11-12-1-13Z"/>
    <path fill="#f2ead8" stroke="none" d="m24 44 9-2 7 7-2 25-11 0-7-12Z"/>
    <path fill="#1b2734" d="m18 68 11 1-2 21H16Z"/>
    <path fill="#f2ead8" d="m16 82 11 0 0 8-12 0Z"/>
    <path fill="#1b2734" d="m38 69 10-4 2 24H38Z"/>
    <path fill="#f2ead8" d="m39 81 11 0 1 8-13 0Z"/>
    <path fill="#1b2734" d="m42 47 11 2 7-5 8 1 1 7-10 2-8 8-10-4Z"/>
    <path fill="#f2ead8" d="m58 44 11 1 1 7-12 2-4-4Z"/>
    <path fill="#101820" stroke="none" d="M13 89h16v3H13zM36 88h17v4H36z"/>
  </g>
  <g stroke="#101820" stroke-width="3" stroke-linejoin="miter">
    <path fill="#1b2734" d="m23 18-5-12 10 5 9-5 11 7 7 0-5 12 1 10-9 10-17-2-7-11Z"/>
    <path fill="#31404b" stroke="none" d="m21 10 7 5-6 7ZM48 15l5 0-4 7Z"/>
    <path fill="#f2ead8" stroke="none" d="m34 10 6 3-2 10 8 5-5 13-11-1-5-11 7-7Z"/>
    <path fill="#f2ead8" d="m30 26 13-2 10 7-4 9-14 4-10-7Z"/>
    <rect x="30" y="22" width="4" height="5" fill="#d69b3d" stroke="none"/>
    <rect x="43" y="22" width="4" height="5" fill="#d69b3d" stroke="none"/>
    <rect x="31" y="23" width="2" height="3" fill="#101820" stroke="none"/>
    <rect x="44" y="23" width="2" height="3" fill="#101820" stroke="none"/>
    <path fill="#101820" stroke="none" d="m45 29 9 1 2 4-7 4-5-3Z"/>
  </g>
  <rect x="23" y="42" width="26" height="5" fill="#d69b3d" stroke="#101820" stroke-width="2"/>
  <path fill="#326a89" stroke="#101820" stroke-width="2" d="m34 46 6 0 2 6-5 4-5-4Z"/>
  <path fill="#d69b3d" d="M66 38h3v6h-3zM63 36h3v3h-3z"/>
</svg>
