<svg xmlns="http://www.w3.org/2000/svg" viewBox="0 0 88 64" width="88" height="64" shape-rendering="crispEdges">
  <title>Border Collie Bridge Coach — trot frame two</title>
  <desc>Original side-view border collie sprite trotting to the right with gathered forelegs and an elevated tail.</desc>
  <metadata>worldLengthMeters=1.05;shoulderHeightMeters=0.55;anchor=bottom-center;pose=trot-2</metadata>
  <ellipse cx="44" cy="59" rx="34" ry="3" fill="#101820" opacity="0.25"/>
  <g stroke="#101820" stroke-width="3" stroke-linejoin="miter">
    <path fill="#1b2734" d="m23 30-9-5-5-10 3-6 5 3 3 9 12 5Z"/>
    <path fill="#f2ead8" stroke="none" d="m12 10 5 3 2 5-5-3Z"/>
    <path fill="#1b2734" d="m22 23 35-2 13 9-4 17-15 8-25-3-10-12Z"/>
    <path fill="#f2ead8" stroke="none" d="m29 24 12-1 8 8-3 19-15 0-8-13Z"/>
    <path fill="#1b2734" d="m23 43 11 1 9 11-5 5-15-9Z"/>
    <path fill="#f2ead8" d="m34 52 9 3-5 5-8-5Z"/>
    <path fill="#1b2734" d="m47 44 10-1-5 16-10 0Z"/>
    <path fill="#f2ead8" d="m45 53 9 0-2 6-11 0Z"/>
    <path fill="#1b2734" d="m58 42 9 2-7 15-10 0Z"/>
    <path fill="#f2ead8" d="m53 53 9 0-2 6-11 0Z"/>
  </g>
  <g stroke="#101820" stroke-width="3" stroke-linejoin="miter">
    <path fill="#1b2734" d="m57 23 6-14 8 7 9-2 6 8-5 15-13 8-12-8Z"/>
    <path fill="#31404b" stroke="none" d="m65 12 6 6-7 4ZM79 17l5 4-4 7Z"/>
    <path fill="#f2ead8" stroke="none" d="m68 17 6 1 0 8 8 3-5 11-10 2-6-8 5-8Z"/>
    <rect x="68" y="24" width="4" height="4" fill="#d69b3d" stroke="none"/>
    <path fill="#101820" stroke="none" d="m79 27 8 2-1 5-8 1-3-4Z"/>
  </g>
  <rect x="57" y="37" width="20" height="4" fill="#d69b3d" stroke="#101820" stroke-width="2"/>
</svg>
