<svg xmlns="http://www.w3.org/2000/svg" viewBox="0 0 88 64" width="88" height="64" shape-rendering="crispEdges">
  <title>Border Collie Bridge Coach — trot frame one</title>
  <desc>Original side-view border collie sprite trotting to the right with forelegs extended.</desc>
  <metadata>worldLengthMeters=1.05;shoulderHeightMeters=0.55;anchor=bottom-center;pose=trot-1</metadata>
  <ellipse cx="44" cy="59" rx="35" ry="3" fill="#101820" opacity="0.25"/>
  <g stroke="#101820" stroke-width="3" stroke-linejoin="miter">
    <path fill="#1b2734" d="m22 30-10-2-9-7 1-5 6 0 7 7 13 2Z"/>
    <path fill="#f2ead8" stroke="none" d="m4 17 6 1 4 4-5 0Z"/>
    <path fill="#1b2734" d="m22 23 35-2 13 9-4 17-15 8-25-3-10-12Z"/>
    <path fill="#f2ead8" stroke="none" d="m29 24 12-1 8 8-3 19-15 0-8-13Z"/>
    <path fill="#1b2734" d="m24 43 11 2-10 14-10 0Z"/>
    <path fill="#f2ead8" d="m18 53 10 0-3 6-11 0Z"/>
    <path fill="#1b2734" d="m46 44 10-1 12 13-5 4-18-10Z"/>
    <path fill="#f2ead8" d="m59 52 9 4-5 4-8-5Z"/>
    <path fill="#1b2734" d="m57 42 9 1 15 8-2 6-18-5Z"/>
    <path fill="#f2ead8" d="m74 49 8 2-2 6-9-2Z"/>
  </g>
  <g stroke="#101820" stroke-width="3" stroke-linejoin="miter">
    <path fill="#1b2734" d="m57 23 6-14 8 7 9-2 6 8-5 15-13 8-12-8Z"/>
    <path fill="#31404b" stroke="none" d="m65 12 6 6-7 4ZM79 17l5 4-4 7Z"/>
    <path fill="#f2ead8" stroke="none" d="m68 17 6 1 0 8 8 3-5 11-10 2-6-8 5-8Z"/>
    <rect x="68" y="24" width="4" height="4" fill="#d69b3d" stroke="none"/>
    <path fill="#101820" stroke="none" d="m79 27 8 2-1 5-8 1-3-4Z"/>
  </g>
  <rect x="57" y="37" width="20" height="4" fill="#d69b3d" stroke="#101820" stroke-width="2"/>
</svg>
