<svg xmlns="http://www.w3.org/2000/svg" viewBox="0 0 72 96" width="72" height="96" shape-rendering="crispEdges">
  <title>Border Collie Bridge Coach — victory pose</title>
  <desc>Original border collie sprite sitting upright with both forepaws raised, tail curled, and a gold biscuit medal.</desc>
  <metadata>worldHeightMeters=1.0;shoulderHeightMeters=0.55;anchor=bottom-center;pose=victory</metadata>
  <ellipse cx="35" cy="91" rx="27" ry="4" fill="#101820" opacity="0.28"/>
  <g stroke="#101820" stroke-width="3" stroke-linejoin="miter">
    <path fill="#1b2734" d="m19 72-9 0-5-7 1-8 5-3 3 4-3 7 10 1Z"/>
    <path fill="#f2ead8" stroke="none" d="m6 59 5-3 3 3-3 5Z"/>
    <path fill="#1b2734" d="m24 43 23 0 8 14-3 27-11 7-20-4-7-16 4-17Z"/>
    <path fill="#f2ead8" stroke="none" d="m30 45 10 0 7 10-4 27-8 5-9-6-4-20Z"/>
    <path fill="#1b2734" d="m25 48-8 4-8-12 1-10 7-1 3 9 10 7Z"/>
    <path fill="#f2ead8" d="m9 31 8-2 3 9-4 6-7-4Z"/>
    <path fill="#1b2734" d="m45 47 8 4 8-12-1-10-7-1-3 10-10 7Z"/>
    <path fill="#f2ead8" d="m53 29 7-1 2 11-7 5-5-6Z"/>
    <path fill="#1b2734" d="m18 78 14 3 0 10-18-1Z"/>
    <path fill="#1b2734" d="m40 81 14-4 4 13-19 1Z"/>
    <path fill="#f2ead8" d="m15 85 17 0 0 6-18-1ZM40 85l17-1 1 6-19 1Z"/>
  </g>
  <g stroke="#101820" stroke-width="3" stroke-linejoin="miter">
    <path fill="#1b2734" d="m21 18-5-12 11 5 9-6 10 6 10-4-5 14 2 11-9 13-18 0-9-11Z"/>
    <path fill="#31404b" stroke="none" d="m19 10 7 5-5 7ZM48 13l6-3-4 11Z"/>
    <path fill="#f2ead8" stroke="none" d="m33 9 7 2-2 12 8 6-5 12-11 0-6-11 7-8Z"/>
    <path fill="#f2ead8" d="m24 28 10-5 13 4 4 8-8 10-15-1-7-9Z"/>
    <rect x="26" y="22" width="4" height="5" fill="#d69b3d" stroke="none"/>
    <rect x="42" y="22" width="4" height="5" fill="#d69b3d" stroke="none"/>
    <rect x="27" y="23" width="2" height="3" fill="#101820" stroke="none"/>
    <rect x="43" y="23" width="2" height="3" fill="#101820" stroke="none"/>
    <path fill="#101820" stroke="none" d="m31 30 9-2 4 4-6 5-8-3Z"/>
    <path fill="#7d2f37" d="m30 38 12-1-2 7-7 0Z"/>
  </g>
  <rect x="23" y="43" width="28" height="5" fill="#d69b3d" stroke="#101820" stroke-width="2"/>
  <path fill="#d69b3d" stroke="#101820" stroke-width="2" d="m31 47 10 0 3 8-8 6-8-6Z"/>
  <path fill="#f2ead8" d="m33 51 6 0 2 4-5 3-5-3Z"/>
  <path fill="#d69b3d" d="M6 23h4v4H6zM62 19h4v4h-4zM3 31h3v3H3zM66 28h3v3h-3z"/>
</svg>
