<svg xmlns="http://www.w3.org/2000/svg" viewBox="0 0 72 112" width="72" height="112" shape-rendering="crispEdges">
  <title>Border Collie Bridge Coach — upright walk frame one</title>
  <desc>Original full-body anthropomorphic border collie striding vertically on two legs in a tan belted trenchcoat, left foot forward.</desc>
  <metadata>worldHeightMeters=1.8;anchor=bottom-center;pose=upright-walk-1;wardrobe=trenchcoat</metadata>
  <ellipse cx="36" cy="107" rx="23" ry="3" fill="#101820" opacity="0.25"/>
  <g stroke="#101820" stroke-width="3" stroke-linejoin="miter">
    <path fill="#1b2734" d="M22 70 13 66 9 57 12 51 16 54 16 60 25 64Z"/>
    <path fill="#26333d" d="m27 85 12 1-6 18H21Z"/>
    <path fill="#26333d" d="m40 86 11-2 6 17-10 4Z"/>
    <path fill="#101820" d="M19 101h16l1 6H17ZM46 101h13l2 5-14 1Z"/>
    <path fill="#a98255" d="m26 40 11-3 12 4 8 14-2 35-15 6-21-5-2-36Z"/>
    <path fill="#c29b67" d="m26 41 11 9-12 12-6-8ZM48 42l-11 8 11 12 7-8Z"/>
    <path fill="#795b3c" stroke="none" d="M35 50h5v40h-5Z"/>
    <path fill="#8e6b47" d="m20 53-8 15 7 6 10-16ZM52 53l9 17-7 5-10-17Z"/>
    <path fill="#f2ead8" d="m11 66 9 4-2 8-10-6ZM54 69l8-2 3 7-10 4Z"/>
    <path fill="#5e4632" d="M19 67h37v6H19Z"/>
    <rect x="35" y="67" width="7" height="7" fill="#d69b3d"/>
    <g fill="#d69b3d" stroke="none"><rect x="28" y="57" width="3" height="3"/><rect x="44" y="57" width="3" height="3"/></g>
  </g>
  <g stroke="#101820" stroke-width="3" stroke-linejoin="miter">
    <path fill="#1b2734" d="m23 15-6-11 11 4 8-5 10 5 10-3-5 13 2 9-8 13-17 1-10-10Z"/>
    <path fill="#31404b" stroke="none" d="m20 8 8 4-6 8ZM48 9l6-2-4 11Z"/>
    <path fill="#f2ead8" stroke="none" d="m34 7 7 2-2 10 8 6-5 12-11 0-7-10 7-9Z"/>
    <path fill="#f2ead8" d="m25 25 11-5 13 4 4 8-8 10-16-1-7-9Z"/>
    <rect x="28" y="19" width="4" height="5" fill="#d69b3d" stroke="none"/><rect x="44" y="19" width="4" height="5" fill="#d69b3d" stroke="none"/>
    <path fill="#101820" stroke="none" d="m33 27 9-2 5 4-7 5-8-3Z"/>
  </g>
  <path fill="#f2ead8" stroke="#101820" stroke-width="2" d="m28 40 9 10 9-10 3 6-12 10-12-10Z"/>
  <path fill="#326a89" stroke="#101820" stroke-width="2" d="m34 49 6 0 2 10-5 5-5-5Z"/>
</svg>
