<svg xmlns="http://www.w3.org/2000/svg" viewBox="0 0 64 96" width="64" height="96" shape-rendering="crispEdges">
  <title>Border Collie Bridge Coach — idle talk pose</title>
  <desc>Original full-body black-and-white border collie sprite standing at three-quarter view with an open mouth and gold coach collar.</desc>
  <metadata>worldHeightMeters=0.95;shoulderHeightMeters=0.55;anchor=bottom-center;pose=idle-talk</metadata>
  <g id="shadow" opacity="0.28" fill="#101820">
    <ellipse cx="31" cy="91" rx="23" ry="3"/>
  </g>
  <g id="tail" stroke="#101820" stroke-width="3" stroke-linejoin="miter">
    <path fill="#1b2734" d="M19 54 11 51 7 44 9 38 13 39 13 45 22 49Z"/>
    <path fill="#f2ead8" stroke="none" d="m10 39 3 2v5l-3-3Z"/>
  </g>
  <g id="body" stroke="#101820" stroke-width="3" stroke-linejoin="miter">
    <path fill="#1b2734" d="M18 42 36 39 46 45 49 59 44 74 35 79 21 76 14 64 14 51Z"/>
    <path fill="#f2ead8" stroke="none" d="m24 43 9-1 5 5 1 19-5 10-9-2-5-14 1-11Z"/>
    <path fill="#9aa6aa" stroke="none" d="m22 61 5 3 9-1-2 11-9-1Z"/>
  </g>
  <g id="legs" stroke="#101820" stroke-width="3" stroke-linejoin="miter">
    <path fill="#1b2734" d="m17 68 10 1-1 21H16Z"/>
    <path fill="#f2ead8" d="m16 82 10 0 0 8-11 0Z"/>
    <path fill="#1b2734" d="m36 69 10-3 1 23H36Z"/>
    <path fill="#f2ead8" d="m37 81 10 0 1 8-12 0Z"/>
    <path fill="#101820" stroke="none" d="M13 89h15v3H13zM34 88h16v4H34z"/>
  </g>
  <g id="head" stroke="#101820" stroke-width="3" stroke-linejoin="miter">
    <path fill="#1b2734" d="m21 18-7-12 11 4 7-4 12 4 7-3-4 15 3 9-7 13-17 1-9-10Z"/>
    <path fill="#31404b" stroke="none" d="m18 10 6 4-4 8ZM44 12l5-2-3 10Z"/>
    <path fill="#f2ead8" stroke="none" d="m30 11 7 1-2 10 7 6-4 12-11 1-6-9 7-9Z"/>
    <path fill="#f2ead8" d="m23 29 8-5 11 3 3 8-6 8-13-1-6-7Z"/>
    <rect x="25" y="23" width="4" height="5" fill="#d69b3d" stroke="none"/>
    <rect x="39" y="22" width="4" height="5" fill="#d69b3d" stroke="none"/>
    <rect x="26" y="23" width="2" height="3" fill="#101820" stroke="none"/>
    <rect x="40" y="22" width="2" height="3" fill="#101820" stroke="none"/>
    <path fill="#101820" stroke="none" d="m31 30 7-1 3 4-6 4-6-3Z"/>
    <path fill="#7d2f37" d="m29 38 11-1-2 8-7 0Z"/>
    <rect x="32" y="40" width="5" height="3" fill="#dc6a70" stroke="none"/>
  </g>
  <g id="collar">
    <rect x="21" y="43" width="24" height="5" fill="#d69b3d" stroke="#101820" stroke-width="2"/>
    <path fill="#326a89" stroke="#101820" stroke-width="2" d="m31 47 5 0 2 6-5 3-4-4Z"/>
    <rect x="32" y="49" width="3" height="3" fill="#f2ead8"/>
  </g>
</svg>
