<svg xmlns="http://www.w3.org/2000/svg" viewBox="0 0 72 112" width="72" height="112" shape-rendering="crispEdges">
  <title>Border Collie Bridge Coach — upright idle talk pose</title>
  <desc>Original full-body anthropomorphic black-and-white border collie standing vertically in a tan belted trenchcoat, speaking at three-quarter view.</desc>
  <metadata>worldHeightMeters=1.8;anchor=bottom-center;pose=upright-idle-talk;wardrobe=trenchcoat</metadata>
  <ellipse cx="36" cy="107" rx="22" ry="3" fill="#101820" opacity="0.28"/>
  <g id="tail" stroke="#101820" stroke-width="3" stroke-linejoin="miter">
    <path fill="#1b2734" d="M21 70 13 67 8 59 10 52 15 53 15 59 24 64Z"/>
    <path fill="#f2ead8" stroke="none" d="m10 53 5 2v5l-4-3Z"/>
  </g>
  <g id="legs" stroke="#101820" stroke-width="3" stroke-linejoin="miter">
    <path fill="#26333d" d="m25 86 11 0-2 18H23Z"/>
    <path fill="#26333d" d="m38 86 11-1 2 19H39Z"/>
    <path fill="#101820" d="M20 102h15l2 5H18ZM38 102h15l3 5H38Z"/>
  </g>
  <g id="trenchcoat" stroke="#101820" stroke-width="3" stroke-linejoin="miter">
    <path fill="#a98255" d="m25 40 11-3 12 4 8 14-2 35-15 6-21-5-2-36Z"/>
    <path fill="#c29b67" d="m25 41 11 9-12 12-5-8Z"/>
    <path fill="#c29b67" d="m47 42-11 8 11 12 7-8Z"/>
    <path fill="#795b3c" stroke="none" d="M34 50h5v40h-5Z"/>
    <path fill="#8e6b47" d="m18 53-7 17 7 5 9-17Z"/>
    <path fill="#8e6b47" d="m53 53 8 17-7 5-9-17Z"/>
    <path fill="#f2ead8" d="m10 68 8 2-1 8-9-4Z"/>
    <path fill="#f2ead8" d="m54 70 8-2 3 6-10 4Z"/>
    <path fill="#5e4632" d="M18 67h37v6H18Z"/>
    <rect x="34" y="67" width="7" height="7" fill="#d69b3d"/>
    <g fill="#d69b3d" stroke="none">
      <rect x="27" y="57" width="3" height="3"/><rect x="43" y="57" width="3" height="3"/>
      <rect x="27" y="78" width="3" height="3"/><rect x="43" y="78" width="3" height="3"/>
    </g>
  </g>
  <g id="head" stroke="#101820" stroke-width="3" stroke-linejoin="miter">
    <path fill="#1b2734" d="m22 15-6-11 11 4 8-5 10 5 10-3-5 13 2 9-8 13-17 1-10-10Z"/>
    <path fill="#31404b" stroke="none" d="m19 8 8 4-6 8ZM47 9l6-2-4 11Z"/>
    <path fill="#f2ead8" stroke="none" d="m33 7 7 2-2 10 8 6-5 12-11 0-7-10 7-9Z"/>
    <path fill="#f2ead8" d="m24 25 11-5 13 4 4 8-8 10-16-1-7-9Z"/>
    <rect x="27" y="19" width="4" height="5" fill="#d69b3d" stroke="none"/>
    <rect x="43" y="19" width="4" height="5" fill="#d69b3d" stroke="none"/>
    <rect x="28" y="20" width="2" height="3" fill="#101820" stroke="none"/>
    <rect x="44" y="20" width="2" height="3" fill="#101820" stroke="none"/>
    <path fill="#101820" stroke="none" d="m32 27 9-2 5 4-7 5-8-3Z"/>
    <path fill="#7d2f37" d="m30 35 13-1-2 8-8 0Z"/>
    <rect x="34" y="37" width="5" height="3" fill="#dc6a70" stroke="none"/>
  </g>
  <g id="collar">
    <path fill="#f2ead8" stroke="#101820" stroke-width="2" d="m27 40 9 10 9-10 3 6-12 10-12-10Z"/>
    <path fill="#326a89" stroke="#101820" stroke-width="2" d="m33 49 6 0 2 10-5 5-5-5Z"/>
  </g>
</svg>
