<svg xmlns="http://www.w3.org/2000/svg" viewBox="0 0 84 112" width="84" height="112" shape-rendering="crispEdges">
  <title>Border Collie Bridge Coach — upright pointing pose</title>
  <desc>Original full-body anthropomorphic border collie standing vertically in a tan belted trenchcoat and pointing toward a coaching target.</desc>
  <metadata>worldHeightMeters=1.8;anchor=bottom-center;pose=upright-point-right;wardrobe=trenchcoat</metadata>
  <ellipse cx="39" cy="107" rx="24" ry="3" fill="#101820" opacity="0.28"/>
  <g stroke="#101820" stroke-width="3" stroke-linejoin="miter">
    <path fill="#1b2734" d="M22 70 13 67 9 59 11 52 16 54 16 60 25 64Z"/>
    <path fill="#26333d" d="m27 86 12 0-2 18H25Z"/>
    <path fill="#26333d" d="m41 86 11-1 2 19H42Z"/>
    <path fill="#101820" d="M22 102h16l2 5H20ZM41 102h15l3 5H41Z"/>
    <path fill="#a98255" d="m27 40 12-3 12 4 8 14-2 35-16 6-21-5-2-36Z"/>
    <path fill="#c29b67" d="m27 41 12 9-13 12-6-8ZM50 42l-11 8 11 12 7-8Z"/>
    <path fill="#795b3c" stroke="none" d="M37 50h5v40h-5Z"/>
    <path fill="#8e6b47" d="m20 54-8 17 7 6 10-19Z"/>
    <path fill="#f2ead8" d="m11 69 9 3-2 8-10-5Z"/>
    <path fill="#8e6b47" d="m53 53 12 4 8-7 8 2 0 8-13 3-11 10-11-8Z"/>
    <path fill="#f2ead8" d="m72 50 10 2 0 8-12 3-5-5Z"/>
    <path fill="#5e4632" d="M20 67h38v6H20Z"/>
    <rect x="37" y="67" width="7" height="7" fill="#d69b3d"/>
    <g fill="#d69b3d" stroke="none">
      <rect x="29" y="57" width="3" height="3"/><rect x="46" y="57" width="3" height="3"/>
      <rect x="29" y="78" width="3" height="3"/><rect x="46" y="78" width="3" height="3"/>
    </g>
  </g>
  <g stroke="#101820" stroke-width="3" stroke-linejoin="miter">
    <path fill="#1b2734" d="m24 15-6-11 11 4 9-5 10 5 10-3-5 13 2 9-8 13-18 1-10-10Z"/>
    <path fill="#31404b" stroke="none" d="m21 8 8 4-6 8ZM50 9l6-2-4 11Z"/>
    <path fill="#f2ead8" stroke="none" d="m36 7 7 2-2 10 8 6-5 12-11 0-7-10 7-9Z"/>
    <path fill="#f2ead8" d="m27 25 11-5 13 4 4 8-8 10-16-1-7-9Z"/>
    <rect x="30" y="19" width="4" height="5" fill="#d69b3d" stroke="none"/>
    <rect x="46" y="19" width="4" height="5" fill="#d69b3d" stroke="none"/>
    <rect x="31" y="20" width="2" height="3" fill="#101820" stroke="none"/>
    <rect x="47" y="20" width="2" height="3" fill="#101820" stroke="none"/>
    <path fill="#101820" stroke="none" d="m35 27 9-2 5 4-7 5-8-3Z"/>
  </g>
  <path fill="#f2ead8" stroke="#101820" stroke-width="2" d="m29 40 10 10 9-10 3 6-12 10-13-10Z"/>
  <path fill="#326a89" stroke="#101820" stroke-width="2" d="m36 49 6 0 2 10-5 5-5-5Z"/>
  <path fill="#d69b3d" d="M77 44h3v6h-3zM73 42h3v3h-3z"/>
</svg>
