<svg xmlns="http://www.w3.org/2000/svg" viewBox="0 0 84 112" width="84" height="112" shape-rendering="crispEdges">
  <title>Border Collie Bridge Coach — upright victory pose</title>
  <desc>Original full-body anthropomorphic border collie standing vertically in a tan belted trenchcoat with both paws raised in victory.</desc>
  <metadata>worldHeightMeters=1.8;anchor=bottom-center;pose=upright-victory;wardrobe=trenchcoat</metadata>
  <ellipse cx="42" cy="107" rx="25" ry="3" fill="#101820" opacity="0.28"/>
  <g stroke="#101820" stroke-width="3" stroke-linejoin="miter">
    <path fill="#1b2734" d="m23 73-9 1-7-7 2-8 5-2 3 5-3 5 11 1Z"/>
    <path fill="#26333d" d="m29 86 12 0-2 18H27ZM43 86l11-1 2 19H44Z"/>
    <path fill="#101820" d="M24 102h16l2 5H22ZM43 102h15l3 5H43Z"/>
    <path fill="#a98255" d="m29 40 12-3 12 4 8 15-2 34-16 6-21-5-2-35Z"/>
    <path fill="#c29b67" d="m29 41 12 9-13 12-6-8ZM52 42l-11 8 11 12 7-8Z"/>
    <path fill="#795b3c" stroke="none" d="M39 50h5v40h-5Z"/>
    <path fill="#8e6b47" d="m24 55-10-10-2-15 8-2 3 12 10 8Z"/>
    <path fill="#f2ead8" d="m11 29 9-2 3 13-6 7-6-3Z"/>
    <path fill="#8e6b47" d="m57 55 10-11 1-15-8-2-2 13-10 8Z"/>
    <path fill="#f2ead8" d="m60 27 8 1 1 16-6 4-5-8Z"/>
    <path fill="#5e4632" d="M22 67h38v6H22Z"/>
    <rect x="39" y="67" width="7" height="7" fill="#d69b3d"/>
    <g fill="#d69b3d" stroke="none">
      <rect x="31" y="57" width="3" height="3"/><rect x="48" y="57" width="3" height="3"/>
      <rect x="31" y="78" width="3" height="3"/><rect x="48" y="78" width="3" height="3"/>
    </g>
  </g>
  <g stroke="#101820" stroke-width="3" stroke-linejoin="miter">
    <path fill="#1b2734" d="m26 15-6-11 11 4 9-5 10 5 10-3-5 13 2 9-8 13-18 1-10-10Z"/>
    <path fill="#31404b" stroke="none" d="m23 8 8 4-6 8ZM52 9l6-2-4 11Z"/>
    <path fill="#f2ead8" stroke="none" d="m38 7 7 2-2 10 8 6-5 12-11 0-7-10 7-9Z"/>
    <path fill="#f2ead8" d="m29 25 11-5 13 4 4 8-8 10-16-1-7-9Z"/>
    <rect x="32" y="19" width="4" height="5" fill="#d69b3d" stroke="none"/>
    <rect x="48" y="19" width="4" height="5" fill="#d69b3d" stroke="none"/>
    <rect x="33" y="20" width="2" height="3" fill="#101820" stroke="none"/>
    <rect x="49" y="20" width="2" height="3" fill="#101820" stroke="none"/>
    <path fill="#101820" stroke="none" d="m37 27 9-2 5 4-7 5-8-3Z"/>
    <path fill="#7d2f37" d="m35 35 13-1-2 8-8 0Z"/>
  </g>
  <path fill="#f2ead8" stroke="#101820" stroke-width="2" d="m31 40 10 10 9-10 3 6-12 10-13-10Z"/>
  <path fill="#d69b3d" stroke="#101820" stroke-width="2" d="m36 49 10 0 3 10-8 7-8-7Z"/>
  <path fill="#f2ead8" d="m38 53 6 0 2 5-5 4-5-4Z"/>
  <path fill="#d69b3d" d="M7 22h4v4H7zM73 20h4v4h-4zM4 31h3v3H4zM77 30h3v3h-3z"/>
</svg>
